<svg xmlns="http://www.w3.org/2000/svg" width="24px" height="24px" viewBox="0 0 24 23" fill="current">
<g id="surface1">
<path d="M 10.296875 3.707031 C 8.472656 4.019531 6.863281 4.84375 5.605469 6.113281 C 5.101562 6.621094 4.851562 6.945312 4.46875 7.609375 C 3.859375 8.667969 3.59375 9.660156 3.59375 10.925781 C 3.59375 12.453125 4.074219 13.886719 4.863281 14.71875 C 4.972656 14.835938 5.078125 14.9375 5.101562 14.941406 C 5.121094 14.949219 5.035156 14.765625 4.902344 14.527344 C 3.699219 12.351562 3.847656 9.992188 5.324219 7.878906 C 6.191406 6.632812 7.570312 5.679688 9.191406 5.203125 C 9.378906 5.148438 9.8125 5.058594 10.152344 5.003906 C 12.210938 4.695312 14.292969 5.214844 15.945312 6.449219 C 18.382812 8.277344 19.097656 11.292969 17.707031 13.925781 C 17.449219 14.417969 16.71875 15.402344 16.234375 15.921875 C 15.773438 16.414062 15.023438 16.59375 13.585938 16.546875 C 12.699219 16.519531 12.390625 16.46875 11.871094 16.265625 C 11.164062 15.984375 11.054688 16.222656 11.644531 16.738281 C 11.792969 16.871094 12.003906 17.019531 12.113281 17.074219 C 12.574219 17.296875 12.695312 17.550781 12.421875 17.710938 C 12.160156 17.867188 11.386719 18.078125 10.988281 18.109375 C 10.324219 18.160156 10.140625 18.097656 8.496094 17.265625 C 7.601562 16.808594 6.992188 16.671875 6.796875 16.878906 C 6.667969 17.015625 6.78125 17.140625 7.175781 17.277344 C 7.632812 17.441406 8.21875 17.742188 8.878906 18.160156 C 10.066406 18.90625 10.445312 19.054688 11.355469 19.140625 C 14.210938 19.40625 16.859375 18.285156 18.464844 16.121094 C 19.046875 15.335938 19.371094 14.710938 19.769531 13.601562 C 20.113281 12.65625 20.183594 12.214844 20.183594 11.085938 C 20.183594 9.976562 20.132812 9.625 19.839844 8.8125 C 19.167969 6.949219 17.769531 5.441406 15.882812 4.535156 C 14.960938 4.089844 14.074219 3.8125 13.167969 3.683594 C 12.664062 3.609375 10.765625 3.628906 10.296875 3.707031 Z M 10.296875 3.707031 "/>
<path d="M 10.628906 6.304688 C 10.578125 6.386719 10.691406 6.472656 10.757812 6.40625 C 10.8125 6.351562 10.777344 6.257812 10.703125 6.257812 C 10.679688 6.257812 10.644531 6.277344 10.628906 6.304688 Z M 10.628906 6.304688 "/>
<path d="M 11.136719 6.320312 C 11.136719 6.355469 11.15625 6.398438 11.175781 6.414062 C 11.238281 6.449219 11.34375 6.363281 11.308594 6.304688 C 11.261719 6.234375 11.136719 6.242188 11.136719 6.320312 Z M 11.136719 6.320312 "/>
<path d="M 11.691406 6.289062 C 11.636719 6.34375 11.664062 6.441406 11.734375 6.441406 C 11.773438 6.441406 11.808594 6.414062 11.808594 6.375 C 11.808594 6.296875 11.742188 6.246094 11.691406 6.289062 Z M 11.691406 6.289062 "/>
<path d="M 10.007812 6.535156 C 8.125 6.675781 7.679688 6.878906 7.753906 7.578125 L 7.78125 7.867188 L 7.558594 7.867188 C 7.363281 7.867188 7.34375 7.875 7.34375 7.980469 C 7.34375 8.082031 7.324219 8.097656 7.152344 8.097656 C 7.003906 8.097656 6.945312 8.117188 6.882812 8.207031 C 6.84375 8.269531 6.742188 8.335938 6.667969 8.347656 L 6.527344 8.382812 L 6.527344 8.769531 C 6.527344 9.203125 6.574219 9.339844 6.730469 9.339844 C 6.789062 9.339844 6.882812 9.394531 6.941406 9.460938 C 7.046875 9.589844 7.046875 9.589844 7.746094 9.605469 C 8.417969 9.617188 8.453125 9.625 8.425781 9.710938 C 8.394531 9.792969 8.417969 9.796875 8.816406 9.796875 C 9.0625 9.796875 9.210938 9.78125 9.175781 9.757812 C 9.132812 9.734375 9.171875 9.710938 9.296875 9.691406 C 9.558594 9.652344 13.050781 9.664062 13.222656 9.707031 C 13.363281 9.738281 13.363281 9.742188 13.246094 9.757812 C 13.179688 9.761719 13.292969 9.78125 13.488281 9.792969 C 13.921875 9.824219 14.0625 9.808594 14.035156 9.730469 C 14.015625 9.6875 14.175781 9.667969 14.671875 9.644531 L 15.335938 9.625 L 15.460938 9.480469 C 15.527344 9.402344 15.628906 9.339844 15.6875 9.339844 C 15.84375 9.339844 15.894531 9.191406 15.878906 8.777344 L 15.863281 8.398438 L 15.710938 8.363281 C 15.625 8.339844 15.550781 8.304688 15.550781 8.28125 C 15.550781 8.191406 15.394531 8.097656 15.234375 8.097656 C 15.089844 8.097656 15.070312 8.082031 15.070312 7.980469 C 15.070312 7.878906 15.054688 7.867188 14.902344 7.867188 L 14.734375 7.867188 L 14.734375 7.527344 C 14.734375 7.253906 14.71875 7.167969 14.636719 7.066406 C 14.410156 6.789062 13.871094 6.640625 12.863281 6.574219 C 11.886719 6.503906 10.652344 6.492188 10.007812 6.535156 Z M 10.8125 6.886719 C 10.796875 6.9375 10.777344 6.941406 10.761719 6.910156 C 10.726562 6.8125 10.65625 6.847656 10.65625 6.96875 C 10.65625 7.035156 10.636719 7.085938 10.609375 7.085938 C 10.585938 7.085938 10.558594 7.035156 10.558594 6.976562 C 10.558594 6.886719 10.535156 6.867188 10.390625 6.863281 C 10.273438 6.859375 10.222656 6.878906 10.222656 6.921875 C 10.222656 6.960938 10.203125 6.992188 10.175781 6.992188 C 10.152344 6.992188 10.128906 6.960938 10.128906 6.921875 C 10.128906 6.886719 10.085938 6.855469 10.03125 6.855469 C 9.957031 6.855469 9.9375 6.886719 9.9375 7.011719 C 9.9375 7.105469 9.964844 7.175781 10.007812 7.195312 C 10.046875 7.207031 10.078125 7.25 10.078125 7.289062 C 10.078125 7.375 10 7.382812 9.96875 7.300781 C 9.960938 7.273438 9.9375 7.257812 9.917969 7.273438 C 9.902344 7.285156 9.898438 7.335938 9.917969 7.378906 C 9.949219 7.464844 10.109375 7.480469 10.140625 7.390625 C 10.160156 7.351562 10.179688 7.351562 10.214844 7.402344 C 10.285156 7.503906 10.496094 7.429688 10.53125 7.289062 C 10.570312 7.144531 10.65625 7.183594 10.65625 7.351562 C 10.65625 7.453125 10.664062 7.460938 10.707031 7.40625 C 10.746094 7.355469 10.765625 7.351562 10.785156 7.390625 C 10.820312 7.476562 10.992188 7.464844 11.027344 7.378906 C 11.050781 7.308594 11.058594 7.308594 11.097656 7.378906 C 11.152344 7.464844 11.328125 7.480469 11.332031 7.390625 C 11.332031 7.347656 11.34375 7.347656 11.363281 7.390625 C 11.371094 7.425781 11.441406 7.453125 11.511719 7.453125 C 11.628906 7.449219 11.628906 7.441406 11.558594 7.386719 C 11.441406 7.304688 11.4375 6.878906 11.546875 6.835938 C 11.667969 6.789062 12.855469 6.804688 12.882812 6.847656 C 12.921875 6.910156 12.632812 7.78125 12.5625 7.828125 C 12.53125 7.847656 11.914062 7.863281 11.1875 7.851562 L 9.875 7.84375 L 9.730469 7.398438 C 9.652344 7.152344 9.601562 6.917969 9.613281 6.882812 C 9.636719 6.820312 9.742188 6.808594 10.242188 6.808594 C 10.789062 6.808594 10.84375 6.816406 10.8125 6.886719 Z M 11.136719 6.886719 C 11.136719 6.910156 11.117188 6.949219 11.09375 6.984375 C 11.0625 7.027344 11.042969 7.023438 11.027344 6.949219 C 11.011719 6.886719 11.027344 6.855469 11.070312 6.855469 C 11.105469 6.855469 11.136719 6.867188 11.136719 6.886719 Z M 10.097656 7.019531 C 10.140625 7.035156 10.175781 7.078125 10.175781 7.113281 C 10.175781 7.167969 10.15625 7.167969 10.078125 7.128906 C 10.027344 7.101562 9.984375 7.0625 9.984375 7.039062 C 9.984375 6.984375 10 6.984375 10.097656 7.019531 Z M 10.386719 7.019531 C 10.484375 7.054688 10.488281 7.242188 10.390625 7.3125 C 10.261719 7.414062 10.175781 7.257812 10.253906 7.066406 C 10.285156 6.984375 10.285156 6.984375 10.386719 7.019531 Z M 10.96875 7.175781 C 10.96875 7.351562 10.871094 7.414062 10.824219 7.273438 C 10.785156 7.148438 10.839844 6.984375 10.910156 7.003906 C 10.945312 7.015625 10.96875 7.09375 10.96875 7.175781 Z M 11.304688 7.085938 C 11.34375 7.203125 11.289062 7.371094 11.21875 7.347656 C 11.183594 7.335938 11.15625 7.28125 11.144531 7.226562 C 11.113281 7.019531 11.242188 6.898438 11.304688 7.085938 Z M 7.28125 8.179688 C 7.316406 8.195312 7.339844 8.425781 7.347656 8.828125 C 7.363281 9.4375 7.363281 9.445312 7.253906 9.484375 C 7.171875 9.511719 7.105469 9.503906 7.019531 9.449219 C 6.902344 9.375 6.898438 9.371094 6.984375 9.308594 C 7.0625 9.253906 7.066406 9.203125 7.035156 8.824219 C 7.023438 8.589844 6.984375 8.375 6.960938 8.355469 C 6.882812 8.28125 6.902344 8.234375 7.023438 8.1875 C 7.15625 8.136719 7.210938 8.132812 7.28125 8.179688 Z M 15.453125 8.253906 C 15.484375 8.292969 15.488281 8.332031 15.460938 8.34375 C 15.4375 8.359375 15.402344 8.570312 15.382812 8.8125 C 15.351562 9.203125 15.355469 9.253906 15.4375 9.308594 C 15.511719 9.367188 15.511719 9.375 15.394531 9.449219 C 15.328125 9.496094 15.230469 9.523438 15.183594 9.511719 C 15.105469 9.5 15.097656 9.429688 15.082031 8.839844 L 15.066406 8.1875 L 15.234375 8.1875 C 15.320312 8.1875 15.421875 8.214844 15.453125 8.253906 Z M 8.976562 9.707031 C 8.910156 9.722656 8.792969 9.742188 8.710938 9.742188 L 8.566406 9.742188 L 8.710938 9.707031 C 8.792969 9.6875 8.910156 9.667969 8.976562 9.667969 L 9.097656 9.667969 Z M 13.867188 9.734375 C 13.910156 9.769531 13.554688 9.742188 13.464844 9.703125 C 13.402344 9.671875 13.445312 9.667969 13.609375 9.6875 C 13.742188 9.707031 13.859375 9.722656 13.867188 9.734375 Z M 13.867188 9.734375 "/>
<path d="M 11.761719 7.152344 C 11.761719 7.410156 11.773438 7.453125 11.847656 7.453125 C 11.894531 7.453125 11.957031 7.429688 11.992188 7.398438 C 12.035156 7.355469 12.046875 7.355469 12.046875 7.398438 C 12.046875 7.429688 12.085938 7.453125 12.132812 7.453125 C 12.183594 7.453125 12.246094 7.429688 12.277344 7.398438 C 12.320312 7.355469 12.335938 7.355469 12.335938 7.402344 C 12.335938 7.433594 12.378906 7.453125 12.445312 7.441406 C 12.589844 7.425781 12.613281 7.25 12.484375 7.144531 C 12.355469 7.039062 12.355469 6.976562 12.488281 7.015625 C 12.570312 7.042969 12.585938 7.035156 12.5625 6.96875 C 12.542969 6.925781 12.527344 6.882812 12.527344 6.871094 C 12.527344 6.863281 12.484375 6.855469 12.433594 6.855469 C 12.378906 6.855469 12.335938 6.882812 12.335938 6.910156 C 12.335938 6.949219 12.316406 6.945312 12.289062 6.898438 C 12.234375 6.820312 12.226562 6.84375 12.222656 7.125 C 12.210938 7.433594 12.097656 7.429688 12.097656 7.121094 L 12.097656 6.878906 L 11.761719 6.855469 Z M 11.902344 7.039062 C 11.902344 7.0625 11.886719 7.085938 11.855469 7.085938 C 11.832031 7.085938 11.808594 7.0625 11.808594 7.039062 C 11.808594 7.011719 11.832031 6.992188 11.855469 6.992188 C 11.886719 6.992188 11.902344 7.011719 11.902344 7.039062 Z M 12.023438 7.128906 C 12.039062 7.152344 12.027344 7.175781 12.003906 7.175781 C 11.976562 7.175781 11.953125 7.152344 11.953125 7.128906 C 11.953125 7.101562 11.960938 7.085938 11.972656 7.085938 C 11.984375 7.085938 12.007812 7.101562 12.023438 7.128906 Z M 12.480469 7.300781 C 12.480469 7.332031 12.464844 7.359375 12.453125 7.359375 C 12.398438 7.359375 12.289062 7.226562 12.289062 7.15625 C 12.289062 7.09375 12.300781 7.09375 12.382812 7.164062 C 12.4375 7.207031 12.480469 7.269531 12.480469 7.300781 Z M 11.953125 7.289062 C 11.953125 7.328125 11.917969 7.359375 11.878906 7.359375 C 11.839844 7.359375 11.808594 7.328125 11.808594 7.289062 C 11.808594 7.253906 11.839844 7.222656 11.878906 7.222656 C 11.917969 7.222656 11.953125 7.253906 11.953125 7.289062 Z M 11.953125 7.289062 "/>
<path d="M 7.371094 7.289062 C 7.359375 7.328125 7.367188 7.359375 7.386719 7.359375 C 7.410156 7.359375 7.441406 7.328125 7.460938 7.289062 C 7.472656 7.253906 7.464844 7.222656 7.445312 7.222656 C 7.421875 7.222656 7.390625 7.253906 7.371094 7.289062 Z M 7.371094 7.289062 "/>
<path d="M 5.832031 9.683594 C 5.59375 9.910156 5.734375 10.207031 6.101562 10.253906 C 6.292969 10.28125 6.320312 10.273438 6.421875 10.148438 C 6.5625 9.96875 6.558594 9.820312 6.40625 9.683594 C 6.25 9.527344 5.992188 9.527344 5.832031 9.683594 Z M 5.832031 9.683594 "/>
<path d="M 16.074219 9.65625 C 15.9375 9.761719 15.925781 10.027344 16.054688 10.164062 C 16.261719 10.382812 16.753906 10.207031 16.753906 9.914062 C 16.753906 9.628906 16.320312 9.460938 16.074219 9.65625 Z M 16.074219 9.65625 "/>
<path d="M 6.378906 10.417969 C 6.402344 10.46875 6.460938 10.550781 6.503906 10.601562 L 6.582031 10.695312 L 6.53125 10.601562 C 6.507812 10.550781 6.453125 10.46875 6.40625 10.417969 L 6.332031 10.328125 Z M 6.378906 10.417969 "/>
<path d="M 9.753906 10.722656 C 9.484375 10.742188 9.1875 10.78125 9.097656 10.808594 C 8.867188 10.882812 8.796875 11.101562 8.761719 11.890625 C 8.742188 12.246094 8.71875 12.582031 8.703125 12.636719 C 8.6875 12.710938 8.699219 12.742188 8.746094 12.742188 C 8.804688 12.742188 8.828125 12.585938 8.875 11.96875 C 8.910156 11.546875 8.953125 11.128906 8.976562 11.039062 C 9.007812 10.894531 9.015625 10.898438 9.015625 11.132812 C 9.015625 11.269531 8.992188 11.6875 8.960938 12.0625 C 8.917969 12.578125 8.917969 12.742188 8.960938 12.742188 C 8.996094 12.742188 9.023438 12.585938 9.042969 12.292969 C 9.085938 11.679688 9.167969 10.882812 9.195312 10.859375 C 9.230469 10.824219 9.214844 11.457031 9.167969 12.09375 C 9.121094 12.671875 9.125 12.796875 9.195312 12.726562 C 9.210938 12.714844 9.246094 12.382812 9.269531 11.996094 C 9.296875 11.609375 9.335938 11.179688 9.355469 11.039062 C 9.390625 10.824219 9.398438 10.859375 9.398438 11.316406 C 9.398438 11.605469 9.382812 12.046875 9.363281 12.296875 C 9.34375 12.605469 9.351562 12.742188 9.390625 12.742188 C 9.421875 12.742188 9.453125 12.488281 9.476562 12.015625 C 9.507812 11.339844 9.570312 10.726562 9.59375 10.832031 C 9.621094 10.921875 9.601562 11.9375 9.570312 12.335938 C 9.550781 12.585938 9.558594 12.742188 9.585938 12.742188 C 9.609375 12.742188 9.65625 12.328125 9.691406 11.789062 C 9.761719 10.550781 9.859375 10.410156 9.816406 11.59375 C 9.800781 12.0625 9.777344 12.511719 9.761719 12.589844 C 9.742188 12.699219 9.757812 12.742188 9.804688 12.742188 C 9.859375 12.742188 9.878906 12.558594 9.902344 11.789062 C 9.921875 11.234375 9.949219 10.824219 9.984375 10.792969 C 10.035156 10.742188 10.042969 11.324219 9.992188 12.203125 C 9.96875 12.589844 9.972656 12.742188 10.011719 12.742188 C 10.050781 12.742188 10.078125 12.457031 10.105469 11.835938 C 10.152344 10.5625 10.234375 10.492188 10.203125 11.738281 C 10.191406 12.519531 10.195312 12.742188 10.242188 12.742188 C 10.292969 12.742188 10.304688 12.542969 10.316406 11.921875 C 10.324219 11.476562 10.34375 11.027344 10.367188 10.925781 C 10.390625 10.808594 10.40625 11.128906 10.402344 11.742188 C 10.390625 12.515625 10.40625 12.742188 10.453125 12.742188 C 10.496094 12.742188 10.511719 12.558594 10.515625 11.992188 C 10.523438 11.582031 10.535156 11.132812 10.558594 10.992188 C 10.585938 10.824219 10.597656 11.066406 10.601562 11.738281 C 10.601562 12.375 10.628906 12.742188 10.65625 12.742188 C 10.683594 12.742188 10.703125 12.476562 10.707031 12.039062 C 10.714844 11.65625 10.734375 11.207031 10.753906 11.039062 L 10.785156 10.742188 L 10.800781 11.085938 C 10.808594 11.273438 10.808594 11.726562 10.800781 12.085938 C 10.789062 12.617188 10.800781 12.742188 10.851562 12.742188 C 10.90625 12.742188 10.914062 12.675781 10.902344 12.480469 C 10.890625 12.332031 10.902344 11.890625 10.925781 11.5 C 10.957031 10.859375 10.964844 10.816406 11 11.039062 C 11.027344 11.179688 11.035156 11.621094 11.03125 12.019531 C 11.019531 12.570312 11.03125 12.742188 11.078125 12.742188 C 11.121094 12.742188 11.136719 12.519531 11.136719 11.800781 C 11.136719 10.886719 11.140625 10.855469 11.230469 10.855469 C 11.324219 10.855469 11.328125 10.886719 11.328125 11.800781 C 11.328125 12.398438 11.347656 12.742188 11.375 12.742188 C 11.40625 12.742188 11.425781 12.40625 11.425781 11.832031 C 11.425781 11.324219 11.449219 10.894531 11.472656 10.855469 C 11.5 10.808594 11.519531 11.117188 11.519531 11.761719 C 11.519531 12.535156 11.535156 12.742188 11.582031 12.742188 C 11.628906 12.742188 11.640625 12.570312 11.625 11.921875 C 11.601562 10.808594 11.683594 10.457031 11.730469 11.453125 C 11.753906 11.84375 11.765625 12.296875 11.753906 12.457031 C 11.742188 12.664062 11.75 12.742188 11.796875 12.742188 C 11.839844 12.742188 11.855469 12.507812 11.867188 11.738281 C 11.871094 11.042969 11.878906 10.832031 11.902344 11.039062 C 11.921875 11.207031 11.941406 11.65625 11.945312 12.039062 C 11.953125 12.476562 11.972656 12.742188 12 12.742188 C 12.027344 12.742188 12.046875 12.375 12.054688 11.738281 C 12.058594 11.078125 12.070312 10.820312 12.097656 10.972656 C 12.121094 11.09375 12.140625 11.546875 12.140625 11.96875 C 12.144531 12.566406 12.160156 12.742188 12.207031 12.742188 C 12.253906 12.742188 12.265625 12.535156 12.253906 11.738281 C 12.246094 11.101562 12.253906 10.773438 12.28125 10.832031 C 12.308594 10.882812 12.332031 11.082031 12.332031 11.273438 C 12.339844 11.933594 12.398438 12.742188 12.441406 12.742188 C 12.464844 12.742188 12.46875 12.304688 12.453125 11.738281 C 12.425781 11.015625 12.4375 10.753906 12.46875 10.785156 C 12.503906 10.816406 12.539062 11.195312 12.558594 11.789062 C 12.582031 12.429688 12.609375 12.742188 12.644531 12.742188 C 12.679688 12.742188 12.6875 12.566406 12.664062 12.15625 C 12.621094 11.277344 12.621094 10.808594 12.667969 10.808594 C 12.710938 10.808594 12.761719 11.542969 12.78125 12.335938 C 12.792969 12.636719 12.804688 12.742188 12.855469 12.742188 C 12.902344 12.742188 12.910156 12.664062 12.894531 12.382812 C 12.832031 11.53125 12.8125 10.808594 12.855469 10.808594 C 12.902344 10.808594 12.945312 11.222656 12.992188 12.128906 C 13.011719 12.5625 13.042969 12.742188 13.078125 12.742188 C 13.113281 12.742188 13.132812 12.695312 13.117188 12.636719 C 13.078125 12.398438 13.023438 10.875 13.054688 10.84375 C 13.09375 10.800781 13.195312 11.835938 13.203125 12.382812 C 13.214844 12.648438 13.230469 12.742188 13.28125 12.742188 C 13.328125 12.742188 13.339844 12.675781 13.316406 12.429688 C 13.261719 11.792969 13.222656 10.894531 13.253906 10.875 C 13.296875 10.851562 13.328125 11.15625 13.390625 12.007812 C 13.421875 12.398438 13.453125 12.722656 13.464844 12.738281 C 13.535156 12.800781 13.539062 12.621094 13.492188 11.996094 C 13.464844 11.609375 13.441406 11.199219 13.445312 11.085938 L 13.449219 10.878906 L 13.488281 11.0625 C 13.511719 11.164062 13.554688 11.582031 13.589844 11.992188 C 13.628906 12.484375 13.664062 12.742188 13.703125 12.742188 C 13.734375 12.742188 13.753906 12.683594 13.742188 12.589844 C 13.734375 12.511719 13.707031 12.144531 13.683594 11.777344 C 13.660156 11.40625 13.617188 11.054688 13.585938 10.984375 C 13.496094 10.808594 13.328125 10.769531 12.464844 10.707031 C 11.769531 10.664062 11.683594 10.667969 11.449219 10.746094 C 11.199219 10.824219 11.179688 10.824219 11.015625 10.75 C 10.828125 10.667969 10.589844 10.65625 9.753906 10.722656 Z M 9.753906 10.722656 "/>
<path d="M 15.863281 10.707031 C 15.835938 10.730469 15.605469 10.808594 15.351562 10.878906 C 15.097656 10.953125 14.894531 11.027344 14.902344 11.042969 C 14.917969 11.0625 15.066406 11.027344 15.238281 10.964844 C 15.671875 10.816406 15.710938 10.828125 15.457031 11.039062 C 15.335938 11.140625 15.253906 11.222656 15.273438 11.222656 C 15.292969 11.222656 15.382812 11.160156 15.476562 11.082031 C 15.570312 11.003906 15.667969 10.953125 15.691406 10.964844 C 15.714844 10.980469 15.777344 10.921875 15.835938 10.832031 C 15.9375 10.667969 15.941406 10.644531 15.863281 10.707031 Z M 15.863281 10.707031 "/>
<path d="M 6.625 10.808594 C 6.652344 10.859375 6.699219 10.902344 6.730469 10.902344 C 6.757812 10.902344 6.832031 10.9375 6.882812 10.980469 C 6.984375 11.0625 6.984375 11.0625 6.894531 10.957031 C 6.839844 10.902344 6.820312 10.855469 6.847656 10.855469 C 6.894531 10.855469 7.300781 10.984375 7.503906 11.0625 C 7.546875 11.082031 7.585938 11.078125 7.585938 11.050781 C 7.585938 11.027344 7.535156 10.988281 7.476562 10.976562 C 7.367188 10.949219 7.367188 10.945312 7.460938 10.878906 C 7.539062 10.820312 7.539062 10.808594 7.472656 10.808594 C 7.429688 10.808594 7.378906 10.835938 7.359375 10.875 C 7.324219 10.929688 7.261719 10.921875 6.960938 10.828125 C 6.761719 10.769531 6.59375 10.71875 6.585938 10.71875 C 6.582031 10.71875 6.59375 10.757812 6.625 10.808594 Z M 6.625 10.808594 "/>
<path d="M 7.621094 10.84375 C 7.652344 10.851562 7.707031 10.851562 7.742188 10.84375 C 7.769531 10.828125 7.746094 10.820312 7.679688 10.820312 C 7.613281 10.820312 7.589844 10.828125 7.621094 10.84375 Z M 7.621094 10.84375 "/>
<path d="M 14.6875 10.855469 C 14.6875 10.878906 14.773438 10.902344 14.878906 10.902344 C 14.984375 10.902344 15.070312 10.878906 15.070312 10.855469 C 15.070312 10.828125 14.984375 10.808594 14.878906 10.808594 C 14.773438 10.808594 14.6875 10.828125 14.6875 10.855469 Z M 14.6875 10.855469 "/>
<path d="M 7.054688 11.105469 C 7.054688 11.113281 7.09375 11.152344 7.140625 11.183594 C 7.214844 11.242188 7.21875 11.238281 7.15625 11.164062 C 7.09375 11.089844 7.054688 11.066406 7.054688 11.105469 Z M 7.054688 11.105469 "/>
<path d="M 6.863281 11.222656 C 6.863281 11.246094 6.886719 11.269531 6.910156 11.269531 C 6.941406 11.269531 6.960938 11.246094 6.960938 11.222656 C 6.960938 11.195312 6.941406 11.179688 6.910156 11.179688 C 6.886719 11.179688 6.863281 11.195312 6.863281 11.222656 Z M 6.863281 11.222656 "/>
<path d="M 15.503906 11.222656 C 15.503906 11.246094 15.527344 11.269531 15.550781 11.269531 C 15.582031 11.269531 15.601562 11.246094 15.601562 11.222656 C 15.601562 11.195312 15.582031 11.179688 15.550781 11.179688 C 15.527344 11.179688 15.503906 11.195312 15.503906 11.222656 Z M 15.503906 11.222656 "/>
<path d="M 7.246094 11.292969 C 7.246094 11.335938 7.273438 11.363281 7.300781 11.351562 C 7.328125 11.34375 7.355469 11.316406 7.355469 11.292969 C 7.355469 11.269531 7.328125 11.242188 7.300781 11.234375 C 7.273438 11.222656 7.246094 11.25 7.246094 11.292969 Z M 7.246094 11.292969 "/>
<path d="M 15.125 11.265625 C 15.078125 11.292969 15.078125 11.3125 15.121094 11.339844 C 15.183594 11.375 15.234375 11.34375 15.210938 11.273438 C 15.195312 11.246094 15.164062 11.242188 15.125 11.265625 Z M 15.125 11.265625 "/>
<path d="M 8.621094 11.90625 C 8.566406 11.988281 8.53125 12.71875 8.582031 12.671875 C 8.621094 12.636719 8.691406 11.867188 8.65625 11.867188 C 8.648438 11.867188 8.636719 11.886719 8.621094 11.90625 Z M 8.621094 11.90625 "/>
<path d="M 13.796875 12.046875 C 13.808594 12.128906 13.824219 12.300781 13.824219 12.425781 C 13.824219 12.5625 13.84375 12.648438 13.875 12.648438 C 13.949219 12.648438 13.890625 12.007812 13.8125 11.9375 C 13.78125 11.90625 13.769531 11.9375 13.796875 12.046875 Z M 13.796875 12.046875 "/>
<path d="M 7.15625 12.078125 C 6.855469 12.117188 6.585938 12.164062 6.566406 12.179688 C 6.433594 12.308594 6.820312 12.695312 7.085938 12.695312 C 7.238281 12.695312 7.242188 12.691406 7.167969 12.613281 C 7.117188 12.566406 7.007812 12.535156 6.910156 12.535156 C 6.777344 12.535156 6.742188 12.515625 6.742188 12.441406 C 6.742188 12.390625 6.78125 12.347656 6.824219 12.335938 C 6.886719 12.328125 6.902344 12.34375 6.882812 12.390625 C 6.863281 12.441406 6.878906 12.464844 6.929688 12.464844 C 7.023438 12.464844 7.035156 12.300781 6.949219 12.269531 C 6.902344 12.25 6.902344 12.242188 6.945312 12.242188 C 6.972656 12.234375 7.019531 12.253906 7.03125 12.28125 C 7.046875 12.304688 7.105469 12.328125 7.15625 12.328125 C 7.21875 12.328125 7.242188 12.308594 7.21875 12.273438 C 7.199219 12.242188 7.203125 12.234375 7.238281 12.253906 C 7.265625 12.269531 7.367188 12.285156 7.464844 12.292969 C 7.617188 12.296875 7.632812 12.308594 7.636719 12.4375 C 7.644531 12.578125 7.644531 12.578125 7.664062 12.453125 C 7.695312 12.28125 7.84375 12.207031 7.992188 12.300781 C 8.101562 12.371094 8.101562 12.371094 8.121094 12.191406 L 8.140625 12.007812 L 7.921875 12.011719 C 7.800781 12.015625 7.460938 12.042969 7.15625 12.078125 Z M 8.015625 12.144531 C 8.015625 12.167969 7.96875 12.191406 7.910156 12.191406 C 7.847656 12.191406 7.765625 12.207031 7.726562 12.234375 C 7.683594 12.257812 7.636719 12.257812 7.597656 12.226562 C 7.566406 12.203125 7.503906 12.191406 7.464844 12.207031 C 7.425781 12.222656 7.390625 12.207031 7.390625 12.183594 C 7.390625 12.152344 7.445312 12.144531 7.511719 12.152344 C 7.578125 12.167969 7.632812 12.15625 7.632812 12.140625 C 7.632812 12.117188 7.71875 12.097656 7.824219 12.097656 C 7.929688 12.097656 8.015625 12.117188 8.015625 12.144531 Z M 8.015625 12.144531 "/>
<path d="M 14.3125 12.390625 L 14.304688 12.773438 L 14.53125 12.761719 C 15.359375 12.714844 15.550781 12.6875 15.671875 12.59375 C 15.820312 12.480469 15.960938 12.242188 15.902344 12.183594 C 15.859375 12.144531 14.746094 12.007812 14.472656 12.007812 L 14.324219 12.007812 Z M 14.769531 12.421875 C 14.785156 12.492188 14.8125 12.558594 14.835938 12.558594 C 14.859375 12.558594 14.878906 12.578125 14.878906 12.605469 C 14.878906 12.628906 14.785156 12.648438 14.664062 12.648438 C 14.476562 12.648438 14.449219 12.636719 14.417969 12.535156 C 14.398438 12.46875 14.398438 12.402344 14.417969 12.386719 C 14.433594 12.371094 14.449219 12.390625 14.449219 12.429688 C 14.449219 12.527344 14.585938 12.570312 14.667969 12.507812 C 14.75 12.441406 14.703125 12.335938 14.578125 12.3125 C 14.492188 12.300781 14.496094 12.292969 14.605469 12.285156 C 14.71875 12.28125 14.742188 12.304688 14.769531 12.421875 Z M 15.320312 12.375 C 15.507812 12.484375 15.601562 12.488281 15.601562 12.398438 C 15.601562 12.304688 15.675781 12.308594 15.714844 12.402344 C 15.78125 12.5625 15.5625 12.621094 15.398438 12.480469 C 15.316406 12.410156 15.3125 12.410156 15.3125 12.503906 C 15.3125 12.554688 15.289062 12.613281 15.257812 12.628906 C 15.171875 12.683594 14.980469 12.609375 14.921875 12.5 C 14.878906 12.414062 14.878906 12.40625 14.933594 12.453125 C 15.019531 12.535156 15.167969 12.527344 15.167969 12.441406 C 15.167969 12.410156 15.128906 12.355469 15.085938 12.332031 C 15.003906 12.285156 15.003906 12.285156 15.082031 12.28125 C 15.128906 12.28125 15.234375 12.324219 15.320312 12.375 Z M 15.320312 12.375 "/>
<path d="M 7.316406 12.378906 C 7.300781 12.40625 7.304688 12.449219 7.335938 12.476562 C 7.398438 12.535156 7.488281 12.484375 7.488281 12.390625 C 7.488281 12.320312 7.363281 12.304688 7.316406 12.378906 Z M 7.316406 12.378906 "/>
<path d="M 7.777344 12.410156 C 7.777344 12.519531 7.8125 12.558594 7.902344 12.527344 C 8.007812 12.488281 7.980469 12.328125 7.871094 12.328125 C 7.808594 12.328125 7.777344 12.359375 7.777344 12.410156 Z M 7.777344 12.410156 "/>
<path d="M 8.0625 12.582031 C 8.0625 12.636719 7.988281 12.648438 7.671875 12.648438 C 7.453125 12.648438 7.296875 12.664062 7.316406 12.683594 C 7.371094 12.738281 7.988281 12.777344 8.078125 12.738281 C 8.164062 12.691406 8.195312 12.511719 8.113281 12.511719 C 8.089844 12.511719 8.0625 12.542969 8.0625 12.582031 Z M 8.0625 12.582031 "/>
<path d="M 6.164062 12.949219 C 6.113281 13.136719 6.175781 14.054688 6.265625 14.398438 C 6.34375 14.714844 6.441406 14.859375 6.585938 14.859375 C 6.632812 14.859375 6.679688 14.886719 6.691406 14.914062 C 6.769531 15.167969 6.882812 15.410156 6.964844 15.492188 C 7.050781 15.585938 7.109375 15.59375 7.636719 15.59375 C 7.953125 15.59375 8.25 15.574219 8.300781 15.550781 C 8.371094 15.511719 8.488281 15.3125 8.5625 15.074219 C 8.585938 15 8.746094 14.996094 11.238281 15.003906 L 13.882812 15.019531 L 13.964844 15.210938 C 14.113281 15.582031 14.144531 15.59375 14.816406 15.59375 C 15.378906 15.59375 15.417969 15.589844 15.527344 15.484375 C 15.589844 15.421875 15.675781 15.257812 15.71875 15.121094 C 15.78125 14.917969 15.820312 14.863281 15.902344 14.847656 C 15.96875 14.839844 16.042969 14.769531 16.089844 14.667969 C 16.253906 14.351562 16.386719 13.054688 16.277344 12.890625 C 16.242188 12.835938 16.109375 12.835938 15.5 12.878906 C 13.757812 13 8.125 12.984375 6.542969 12.851562 L 6.195312 12.820312 Z M 6.164062 12.949219 "/>
<path d="M 6.582031 17.796875 L 6.46875 17.878906 L 6.582031 17.976562 C 6.636719 18.03125 6.726562 18.085938 6.761719 18.097656 C 7 18.164062 9.046875 18.585938 9.085938 18.570312 C 9.140625 18.554688 7.882812 17.992188 7.425781 17.824219 C 7.042969 17.6875 6.742188 17.679688 6.582031 17.796875 Z M 6.582031 17.796875 "/>
<path d="M 6.984375 18.523438 C 6.90625 18.535156 6.820312 18.5625 6.796875 18.585938 C 6.714844 18.664062 7.140625 18.734375 7.753906 18.75 L 8.375 18.761719 L 7.988281 18.65625 C 7.558594 18.539062 7.210938 18.492188 6.984375 18.523438 Z M 6.984375 18.523438 "/>
</g>
</svg>
