<svg xmlns="http://www.w3.org/2000/svg" enable-background="new 0 0 24 24" width="24px" height="24px" viewBox="0 0 24 24" fill="current">
    <path d="M 21.144531 0 L 2.855469 0 C 1.28125 0 0 1.28125 0 2.855469 L 0 21.144531 C 0 22.71875 1.28125 24 2.855469 24 L 21.144531 24 C 22.71875 24 24 22.71875 24 21.144531 L 24 2.855469 C 24 1.28125 22.71875 0 21.144531 0 M 18.859375 10.46875 C 18.730469 10.484375 18.597656 10.488281 18.464844 10.492188 C 17.023438 10.492188 15.675781 9.761719 14.882812 8.554688 L 14.882812 15.148438 C 14.882812 17.839844 12.703125 20.019531 10.011719 20.019531 C 7.320312 20.019531 5.140625 17.839844 5.140625 15.148438 C 5.140625 12.457031 7.320312 10.273438 10.011719 10.273438 C 10.113281 10.273438 10.210938 10.285156 10.3125 10.289062 L 10.3125 12.691406 C 10.210938 12.679688 10.113281 12.660156 10.011719 12.660156 C 8.636719 12.660156 7.523438 13.773438 7.523438 15.148438 C 7.523438 16.519531 8.636719 17.632812 10.011719 17.632812 C 11.386719 17.632812 12.597656 16.550781 12.597656 15.179688 L 12.621094 3.980469 L 14.917969 3.980469 C 15.136719 6.042969 16.796875 7.652344 18.863281 7.800781 L 18.863281 10.46875 "/>
</svg>
